<?xml version="1.0" standalone="no"?>
<!DOCTYPE svg PUBLIC "-//W3C//DTD SVG 20010904//EN"
 "http://www.w3.org/TR/2001/REC-SVG-20010904/DTD/svg10.dtd">
<svg version="1.0" xmlns="http://www.w3.org/2000/svg"
 width="1024.000000pt" height="1024.000000pt" viewBox="0 0 1024.000000 1024.000000"
 preserveAspectRatio="xMidYMid meet">

<g transform="translate(0.000000,1024.000000) scale(0.100000,-0.100000)"
fill="#000000" stroke="none">
<path d="M3230 7793 c-136 -22 -283 -71 -389 -129 -302 -165 -505 -466 -551
-816 -8 -58 -10 -606 -7 -1798 3 -1876 -1 -1737 60 -1915 121 -351 403 -605
777 -698 85 -21 89 -21 1945 -25 1286 -2 1885 1 1942 8 495 65 857 414 938
906 14 89 16 270 13 1829 l-3 1730 -27 98 c-56 201 -160 378 -306 519 -136
131 -281 211 -492 271 l-75 22 -1900 1 c-1045 1 -1911 0 -1925 -3z m3234 -774
c70 -37 137 -99 523 -489 305 -308 345 -352 373 -411 l30 -66 -2 -1379 -3
-1379 -22 -40 c-30 -57 -110 -128 -168 -151 -48 -18 -93 -19 -1375 -19 -1070
0 -1332 3 -1362 13 -56 20 -132 93 -159 154 -24 52 -24 57 -27 425 l-3 373
218 2 218 3 5 528 c3 290 3 527 0 526 -3 0 -52 -63 -109 -140 -96 -130 -102
-141 -88 -157 62 -68 80 -214 38 -308 -28 -64 -101 -136 -166 -165 -163 -74
-371 24 -421 199 -19 65 -15 154 10 203 13 26 14 35 4 40 -7 5 -89 64 -182
132 l-169 125 -51 -26 c-40 -20 -65 -25 -121 -25 -38 0 -79 5 -91 11 -19 10
-35 -6 -188 -179 -93 -104 -182 -197 -198 -205 -38 -20 -88 -12 -124 20 -20
17 -28 34 -31 72 -5 44 -2 54 23 84 25 30 229 262 301 341 23 25 23 27 7 65
-27 64 -16 186 23 255 99 178 348 212 492 68 61 -61 85 -120 88 -212 l2 -78
203 -149 203 -149 75 5 c54 4 79 11 90 24 8 9 149 186 313 393 l297 376 28
-15 c35 -18 105 -18 168 1 145 43 243 200 217 349 -14 84 -38 132 -93 187
-144 145 -393 109 -493 -70 -24 -43 -31 -69 -35 -130 -2 -42 0 -93 6 -114 l11
-38 -221 -282 c-121 -155 -226 -290 -232 -299 -6 -10 -14 -18 -19 -18 -4 0 -6
348 -5 773 3 861 -2 803 75 887 21 24 61 54 88 67 l50 23 965 -2 965 -3 49
-26z m-1380 -883 c78 -32 102 -127 49 -186 -37 -40 -79 -51 -129 -34 -47 16
-71 43 -80 92 -9 48 19 101 66 124 42 22 51 22 94 4z"/>
<path d="M6352 6728 c-9 -9 -12 -106 -12 -373 0 -267 3 -364 12 -373 9 -9 103
-12 363 -12 328 0 353 1 368 18 39 43 32 52 -326 409 -351 352 -369 367 -405
331z"/>
<path d="M5165 5405 c-22 -21 -25 -33 -25 -95 0 -62 3 -74 25 -95 l24 -25 855
0 c470 0 862 3 871 6 25 10 45 59 45 113 0 61 -14 95 -47 110 -17 8 -272 11
-874 11 l-850 0 -24 -25z"/>
<path d="M3389 5397 c-58 -39 -75 -102 -43 -157 49 -83 169 -78 210 8 30 64 4
130 -63 158 -45 19 -65 18 -104 -9z"/>
<path d="M5161 4824 c-16 -21 -21 -41 -21 -89 0 -48 5 -68 21 -89 l20 -26 719
0 719 0 20 26 c16 21 21 41 21 91 0 55 -4 67 -25 88 l-24 25 -715 0 -715 0
-20 -26z"/>
<path d="M4220 4739 c-88 -36 -101 -147 -25 -207 48 -38 132 -23 169 30 9 12
16 42 16 65 0 79 -89 141 -160 112z"/>
<path d="M5162 4257 c-18 -19 -22 -35 -22 -93 0 -61 3 -74 23 -92 l23 -22 625
0 626 0 21 23 c18 19 22 35 22 95 0 123 65 112 -668 112 l-629 0 -21 -23z"/>
</g>
</svg>
